<?xml version="1.0" encoding="UTF-8"?>
<svg width="301px" height="54px" viewBox="0 0 301 54" version="1.1" xmlns="http://www.w3.org/2000/svg" xmlns:xlink="http://www.w3.org/1999/xlink">
    <!-- Generator: Sketch 44.1 (41455) - http://www.bohemiancoding.com/sketch -->
    <title>Artboard</title>
    <desc>Created with Sketch.</desc>
    <defs></defs>
    <g id="Page-1" stroke="none" stroke-width="1" fill="none" fill-rule="evenodd">
        <g id="Artboard" fill-rule="nonzero" fill="#FFFFFF">
            <g id="logo-rev">
                <path d="M75.6900585,38.4809055 C73.830078,40.4712972 70.9961014,41.7160259 67.1939961,41.7160259 C60.4170955,41.7160259 56.8262183,37.1774632 56.8262183,31.8286525 C56.8262183,26.4798419 60.3466862,21.9354078 67.152924,21.9354078 C73.7420663,21.9354078 77.0747758,26.1216888 77.0747758,31.5996694 C77.0757199,32.2784893 77.0187948,32.9561525 76.9046199,33.6252893 L63.1219883,33.6252893 C63.6617934,35.8975063 65.4689669,36.9660941 67.757271,36.9660941 C69.6155347,36.9148259 71.4256061,36.363126 72.9969006,35.3690837 L75.6900585,38.4809055 Z M71.2660039,30.0613726 C71.2684262,29.7551599 71.2349487,29.4497195 71.1662573,29.1513115 C70.8318129,27.4368739 69.452963,26.6912109 67.3230799,26.6912109 C64.7766082,26.6912109 63.4564327,28.1473087 63.1806628,29.9087172 L63.1806628,30.0613726 L71.2660039,30.0613726 Z" id="Shape"></path>
                <polygon id="Shape" points="84.6731189 41.2932878 77.0454386 22.3698886 83.4996296 22.3698886 87.9060819 34.6997485 92.3125341 22.3698886 98.7667251 22.3698886 91.1390448 41.2932878"></polygon>
                <path d="M117.654035,38.4809055 C115.794055,40.4712972 112.960078,41.7160259 109.152105,41.7160259 C102.375205,41.7160259 98.7843275,37.1774632 98.7843275,31.8286525 C98.7843275,26.4798419 102.304795,21.9354078 109.111033,21.9354078 C115.700175,21.9354078 119.032885,26.1216888 119.032885,31.5996694 C119.033829,32.2784893 118.976904,32.9561525 118.862729,33.6252893 L105.085965,33.6252893 C105.62577,35.8975063 107.432943,36.9660941 109.721248,36.9660941 C111.579511,36.9148259 113.389583,36.363126 114.960877,35.3690837 L117.654035,38.4809055 Z M113.241715,30.0613726 C113.244631,29.755135 113.211147,29.4496368 113.141969,29.1513115 C112.807524,27.4368739 111.428674,26.6912109 109.304659,26.6912109 C106.758187,26.6912109 105.438012,28.1473087 105.162242,29.9087172 L105.162242,30.0613726 L113.241715,30.0613726 Z" id="Shape"></path>
                <path d="M132.921131,27.0082645 L131.782846,27.0082645 C130.738441,27.0082645 129.259844,27.3194466 127.880994,29.2452533 L127.880994,41.3167733 L121.508947,41.3167733 L121.508947,22.3698886 L127.106491,22.3698886 L127.417466,24.8710888 C128.749376,23.2153647 130.415731,21.9354078 132.745107,21.8943083 L132.921131,21.8943083 L132.921131,27.0082645 Z" id="Shape"></path>
                <path d="M146.609883,44.7397772 C145.530273,47.3525332 144.004737,48.8497305 142.174094,49.7363061 C140.34345,50.6228818 138.154893,50.7579231 135.854854,50.7579231 L135.854854,46.0256055 C137.808713,46.0256055 139.081949,45.7966223 139.962066,45.3092993 C140.841541,44.7239522 141.4955,43.8562576 141.816179,42.8491987 L142.402924,41.2991592 L141.687096,41.2991592 L134.012476,22.3698886 L140.466667,22.3698886 L144.80271,34.4237945 L149.173957,22.3698886 L155.628148,22.3698886 L146.609883,44.7397772 Z" id="Shape"></path>
                <path d="M171.112339,41.2932878 L170.830702,39.056299 C169.422515,40.7883507 166.987524,41.669055 164.546667,41.669055 C160.05807,41.669055 155.745497,38.7333741 155.745497,31.7934244 C155.745497,25.1940137 160.093275,21.9295365 164.710955,21.9295365 C166.78957,21.9178803 168.797888,22.6819694 170.343704,24.0725835 L170.343704,14.5433633 L176.709883,14.5433633 L176.709883,41.2991592 L171.112339,41.2932878 Z M170.343704,29.2687388 C169.550878,27.8381331 168.029164,26.9670319 166.394912,27.0082645 C163.742827,27.0082645 162.099942,28.6052749 162.099942,31.8462666 C162.099942,35.0872584 163.783899,36.6901401 166.477057,36.6901401 C168.10454,36.7635668 169.621555,35.8674932 170.343704,34.4061804 L170.343704,29.2687388 Z" id="Shape"></path>
                <path d="M180.271423,24.1547826 C182.957698,22.7256252 185.948245,21.9643995 188.990448,21.9354078 C193.825224,21.9354078 198.137797,24.1430399 198.137797,29.2804815 L198.137797,41.2932878 L192.540253,41.2932878 L192.264483,39.1032699 C190.772648,40.8559776 188.574171,41.8471377 186.273821,41.8040963 C182.706413,41.8040963 179.191813,39.4555516 179.191813,35.2751419 C179.191813,30.7718074 183.263821,28.7814157 187.318226,28.7814157 C188.845188,28.7708617 190.359006,29.0642473 191.771618,29.6445059 L191.771618,29.1454402 C191.689474,27.1844053 189.888168,26.4035142 187.805224,26.4035142 C185.694943,26.4636546 183.624507,26.9931413 181.744152,27.9535537 L180.271423,24.1547826 Z M191.795088,33.4667625 C190.77665,32.9195969 189.635818,32.6407652 188.479981,32.6565146 C186.719747,32.6565146 185.135536,33.3141071 185.135536,34.8758893 C185.135536,36.3261157 186.567193,37.07765 188.186608,37.07765 C189.554354,37.136793 190.877968,36.5863527 191.800955,35.5745814 L191.795088,33.4667625 Z" id="Shape"></path>
                <path d="M211.50384,44.7397772 C210.42423,47.3525332 208.898694,48.8497305 207.068051,49.7363061 C205.237407,50.6228818 203.04885,50.7579231 200.748811,50.7579231 L200.748811,46.0256055 C202.702671,46.0256055 203.975906,45.7966223 204.856023,45.3092993 C205.735498,44.7239522 206.389457,43.8562576 206.710136,42.8491987 L207.296881,41.2991592 L206.581053,41.2991592 L198.906433,22.3698886 L205.360624,22.3698886 L209.696667,34.4237945 L214.067914,22.3698886 L220.522105,22.3698886 L211.50384,44.7397772 Z" id="Shape"></path>
                <path d="M228.683723,24.4131225 C230.203392,22.9628962 231.834542,21.8884369 234.18152,21.8884369 C237.701988,21.8884369 241.556901,24.0432267 241.556901,29.2335106 L241.556901,41.2932878 L235.190721,41.2932878 L235.190721,30.5897952 C235.190721,27.9007115 233.847076,26.984779 232.256998,26.984779 C231.2654,26.984779 230.238596,27.2196335 228.695458,29.2980956 L228.695458,41.2874165 L222.323411,41.2874165 L222.323411,14.5433633 L228.689591,14.5433633 L228.683723,24.4131225 Z" id="Shape"></path>
                <path d="M262.826394,38.4809055 C260.966413,40.4712972 258.132437,41.7160259 254.324464,41.7160259 C247.547563,41.7160259 243.956686,37.1774632 243.956686,31.8286525 C243.956686,26.4798419 247.477154,21.9354078 254.283392,21.9354078 C260.872534,21.9354078 264.205244,26.1216888 264.205244,31.5996694 C264.206188,32.2784893 264.149263,32.9561525 264.035088,33.6252893 L250.258324,33.6252893 C250.798129,35.8975063 252.605302,36.9660941 254.893606,36.9660941 C256.75187,36.9148259 258.561941,36.363126 260.133236,35.3690837 L262.826394,38.4809055 Z M258.402339,30.0613726 C258.405254,29.755135 258.371771,29.4496368 258.302593,29.1513115 C257.968148,27.4368739 256.589298,26.6912109 254.465283,26.6912109 C251.918811,26.6912109 250.598635,28.1473087 250.322865,29.9087172 L250.322865,30.0613726 L258.402339,30.0613726 Z" id="Shape"></path>
                <path d="M278.116959,27.0082645 L276.94347,27.0082645 C275.899064,27.0082645 274.420468,27.3194466 273.041618,29.2452533 L273.041618,41.3167733 L266.681306,41.3167733 L266.681306,22.3698886 L272.27885,22.3698886 L272.589825,24.8710888 C273.921735,23.2153647 275.58809,21.9354078 277.917466,21.8943083 L278.093489,21.8943083 L278.116959,27.0082645 Z" id="Shape"></path>
                <path d="M300.548207,31.8345239 C300.548207,37.2596622 296.869318,41.7160259 289.734503,41.7160259 C282.599688,41.7160259 278.920799,37.1657204 278.920799,31.8345239 C278.920799,26.5033273 282.652495,21.9354078 289.734503,21.9354078 C296.693294,21.9354078 300.548207,26.3271865 300.548207,31.8345239 Z M289.734503,27.0082645 C287.105887,27.0082645 285.286979,28.7109594 285.286979,31.852138 C285.286979,34.9933166 287.105887,36.6960115 289.734503,36.6960115 C292.363119,36.6960115 294.182027,35.0637729 294.182027,31.852138 C294.182027,28.6405031 292.374854,27.0082645 289.734503,27.0082645 Z" id="Shape"></path>
                <g id="Group" opacity="0.7" transform="translate(0.000000, 2.935681)">
                    <path d="M4.85824561,31.447014 C3.56995279,32.7345 3.18385627,34.6719213 3.88008077,36.3554173 C4.57630527,38.0389132 6.21765764,39.1367459 8.03840156,39.1367459 C9.85914548,39.1367459 11.5004979,38.0389132 12.1967223,36.3554173 C12.8929468,34.6719213 12.5068503,32.7345 11.2185575,31.447014 C10.3755127,30.6022959 9.23143211,30.1276448 8.03840156,30.1276448 C6.84537101,30.1276448 5.70129045,30.6022959 4.85824561,31.447014 L4.85824561,31.447014 Z" id="Shape"></path>
                    <path d="M4.58834308,0.933546533 C3.5591128,-0.0592244108 1.92190368,-0.0339823249 0.923726469,0.990046687 C-0.0744507468,2.0140757 -0.0589064779,3.65249796 0.958519694,4.65737873 C1.97594587,5.6622595 3.6133388,5.65639284 4.62354776,4.64424722 C5.63753723,3.6097216 5.6217778,1.9486216 4.58834308,0.933546533 L4.58834308,0.933546533 Z" id="Shape"></path>
                    <path d="M44.4987135,36.1323608 C39.2649513,30.3842975 36.6363353,25.053101 36.6832749,20.2796838 C36.7119307,17.7254459 37.6765183,15.2705827 39.3940351,13.3808336 C37.5175719,12.2579521 35.3726635,11.6635499 33.1862768,11.6605246 L32.83423,11.6605246 C32.5760624,11.3434711 32.3002924,11.0381603 32.0010526,10.7445922 C27.8712353,6.63770547 21.4625109,5.9086792 16.5168616,8.98318361 C16.4523197,8.91272727 16.3877778,8.83639957 16.3173684,8.76594323 C14.384955,6.83427251 11.4378438,6.34836588 8.98827002,7.55755401 C6.53869623,8.76674213 5.13051419,11.4025611 5.48629676,14.1125073 C5.84207934,16.8224535 7.88283569,19.0048648 10.5614035,19.5398922 C10.5075826,22.9199529 11.8183951,26.1788711 14.1972083,28.5791636 C16.5760214,30.9794561 19.8217455,32.3182175 23.199883,32.2924901 C24.9261199,35.5095609 27.0664197,38.4862667 29.5660624,41.1465038 C33.0865302,45.0216026 40.7611501,50.7814086 42.9790448,50.8166367 C44.7392788,50.8166367 50.1197271,47.2057492 54.0274464,43.8062307 C50.5349413,41.6685243 47.3323181,39.0893237 44.4987135,36.1323608 L44.4987135,36.1323608 Z" id="Shape"></path>
                </g>
                <path d="M44.4987135,39.0680417 C39.2649513,33.3199784 36.6363353,27.9887819 36.6832749,23.2153647 C36.7360819,17.3440029 41.6999415,12.5999425 47.7375439,12.6469134 C51.3721361,12.6638078 54.7651416,14.4712509 56.808616,17.4790442 C58.9050541,14.5062886 62.3320576,12.759789 65.9676998,12.8113115 C66.5937912,12.8218589 67.217909,12.8847051 67.8335478,12.9991951 C67.757271,6.04750269 61.9661014,0.38163852 54.7902144,0.305310816 C50.4177406,0.241007131 46.294946,2.33892844 43.7711501,5.91246137 C41.3079023,2.30371915 37.2249866,0.142283621 32.8576998,0.135041322 C25.5938012,0.0645849802 19.6266082,5.76567733 19.5620663,12.8230543 C19.5033918,18.5417607 22.6718129,24.9532878 28.9499805,31.8697521 C32.781423,36.0442903 41.0369201,42.2738052 43.4191033,42.2738052 C44.0703899,42.2738052 45.1793372,41.8099677 46.5288499,41.0643047 C45.7660819,40.3832267 45.0737232,39.6962774 44.4987135,39.0680417 Z" id="Shape"></path>
            </g>
        </g>
    </g>
</svg>