<?xml version="1.0" encoding="UTF-8"?>
<svg width="123px" height="151px" viewBox="0 0 123 151" version="1.1" xmlns="http://www.w3.org/2000/svg" xmlns:xlink="http://www.w3.org/1999/xlink">
    <!-- Generator: Sketch 44.1 (41455) - http://www.bohemiancoding.com/sketch -->
    <title>Page 1</title>
    <desc>Created with Sketch.</desc>
    <defs>
        <polygon id="path-1" points="0.0891655754 0.195288684 33.5749568 0.195288684 33.5749568 44.2116492 0.0891655754 44.2116492 0.0891655754 0.195288684"></polygon>
    </defs>
    <g id="Desktop" stroke="none" stroke-width="1" fill="none" fill-rule="evenodd">
        <g id="Desktop-landing-phase-1-v2-Copy-6" transform="translate(-754.000000, -921.000000)">
            <g id="Group-20" transform="translate(754.000000, 921.000000)">
                <g id="Page-1">
                    <path d="M107.036413,64.8840856 C106.770045,64.1747692 106.595491,63.4473188 106.576989,62.8593604 L106.230675,51.7791687 C106.021561,46.4310486 103.694417,41.9170902 98.5740742,41.9209262 L84.8838677,41.9209262 C82.6778645,41.9209262 79.5987462,41.657984 76.8345219,45.4751803 L59.9178743,82.7355636 C59.4074808,83.8208107 57.1124554,88.7542911 62.0341571,91.2428269 C66.7470932,93.6260463 69.5930084,89.0015405 70.3704683,87.4587599 L77.9628337,72.3814274 C77.9628337,72.3814274 78.278775,90.2332542 78.245959,90.3347345 L64.2453969,135.473621 C63.6379518,137.375942 63.6494723,139.785665 64.5945033,141.518155 C65.5391851,143.250644 66.5603213,143.947058 68.2217185,144.736582 L69.19782,145.000571 C69.8366846,145.173541 70.4992885,145.26142 71.1646853,145.26142 C74.5241359,145.26142 77.576373,143.053612 78.5880833,139.890284 L92.2304622,97.2109886 L97.0687275,109.049668 C98.2494053,111.937499 99.5239926,116.994081 99.8521526,120.094986 L102.167077,141.892342 C102.538526,145.38243 105.301354,147.915254 108.736561,147.915254 C109.29932,147.915254 109.870807,147.846554 110.433567,147.711247 L111.417,147.472367 C115.333275,146.525566 116.96046,143.029201 116.262247,137.449524 L113.585648,111.937499 C113.149614,108.5604 111.443183,102.453095 110.086555,99.3298708 L106.277106,89.4988292 C106.217409,89.3603835 106.132227,89.2351895 106.063802,89.1009285 L106.063802,81.8839655 L112.703107,88.8079955 C113.532933,89.6738916 117.484119,93.2190786 121.166144,89.8684828 C124.185216,87.1208408 122.709194,83.3179424 121.091435,81.5366306 C121.091435,81.5366306 107.358289,65.7402172 107.036413,64.8840856 Z" id="Fill-5" fill="#AB9F94"></path>
                    <path d="M79.1901521,17.1227856 C79.2009744,20.2522867 80.3072925,23.1174507 82.153367,25.3723375 L92.487614,38.6976516 L102.730046,25.3015454 C104.556571,23.0341043 105.647179,20.1612683 105.636357,17.0317671 C105.61157,9.77365393 99.671525,3.90976248 92.3682196,3.93521975 C85.0666598,3.9603283 79.1653656,9.86467241 79.1901521,17.1227856" id="Fill-7" fill="#AB9F94"></path>
                    <g id="Group-11" transform="translate(19.963233, 0.153441)">
                        <mask id="mask-2" fill="white">
                            <use xlink:href="#path-1"></use>
                        </mask>
                        <g id="Clip-10"></g>
                        <path d="M0.0892665003,16.8935522 C0.102881649,20.8558201 1.50349643,24.4840048 3.84146183,27.3390557 L16.926667,44.2116492 L29.8949216,27.2494321 C32.2077513,24.3786885 33.5888161,20.7407393 33.5748519,16.7784714 C33.5434323,7.58804642 26.0226336,0.163589145 16.7748057,0.195323557 C7.52977069,0.227406697 0.0574978201,7.70312725 0.0892665003,16.8935522" id="Fill-9" fill="#FFFFFF" mask="url(#mask-2)"></path>
                    </g>
                    <path d="M52.7607642,149.409722 C48.5980198,149.409722 45.251137,146.35206 44.8025353,142.139404 L42.4876109,120.341699 C42.1709714,117.3489 40.9400223,112.465288 39.80019,109.676147 L36.4149055,101.394164 L23.942382,140.414237 C22.7480891,144.148436 19.1484532,146.756237 15.1888887,146.756237 C14.3992101,146.756237 13.6147681,146.651967 12.856509,146.446565 L11.7596168,146.149796 L11.6458081,146.096092 C9.7410837,145.190441 8.49896322,144.315478 7.3919469,142.284824 C6.32926709,140.336122 6.15576122,137.602429 6.93880682,135.149115 L20.8761807,90.2152813 C20.8723405,89.150958 20.7822711,83.6138263 20.6890597,78.1624822 L15.6420288,88.1856739 C15.0244596,89.4107617 12.6952219,93.4072051 8.64104951,93.4072051 C7.58500272,93.4072051 6.50382028,93.1313598 5.42752532,92.5876901 C1.51823212,90.6107409 0.515947716,86.8395769 2.6779635,82.2422721 L19.6448825,44.8706439 L19.7272716,44.756958 C22.3591846,41.1228448 25.2923763,40.6220688 28.0702158,40.6220688 L28.907722,40.6259048 L42.5982776,40.6259048 C47.9144695,40.6259048 51.3800485,44.9166762 51.6502568,51.8243159 L51.9969195,62.915667 C52.0087891,63.302757 52.1306272,63.8380573 52.3324107,64.3970711 C53.1716624,65.6598217 61.2147242,75.0218217 66.1699401,80.7214614 C68.1266813,82.8755654 69.8694204,87.5966693 66.1304911,90.9992259 C64.8346082,92.17863 63.3760418,92.7763529 61.7952881,92.7763529 L61.7952881,92.7763529 C58.6589164,92.7763529 56.1827049,90.3568656 55.7180443,89.8717824 L51.4840822,85.4565145 L51.4840822,88.839891 C51.5172473,88.9023136 51.5514597,88.9717109 51.5839266,89.0473852 L55.4028013,98.9003968 C56.8355338,102.21054 58.5451078,108.376083 58.9947568,111.858498 L61.6748464,137.404002 C62.7417155,145.926958 58.4330446,148.283674 55.7697121,148.927778 L54.7873267,149.166309 C54.1159952,149.32812 53.4348886,149.409722 52.7607642,149.409722" id="Fill-12" fill="#D81E05"></path>
                    <path d="M28.058416,39.2267661 C26.086314,39.2267661 22.0017694,39.2365305 18.5958876,43.9395005 L18.4311094,44.1668723 L18.3152061,44.4221425 L1.40588969,81.6657868 C1.09797787,82.3207014 0.20077448,84.2484797 0.170402225,86.5256852 C0.128160353,89.7071471 1.77140407,92.3016968 4.79710903,93.8319231 C6.07064909,94.4756783 7.3637391,94.8020894 8.64077023,94.8020894 C13.493698,94.8020894 16.1811188,90.2180363 16.8891066,88.8126552 L19.3876609,83.8509277 C19.4351394,86.7534058 19.4707482,89.1195374 19.4784286,90.0084497 L5.60563939,134.735138 C4.71402171,137.535438 4.92872213,140.683771 6.16595513,142.952258 C7.44298625,145.294327 8.97975252,146.373646 11.0457641,147.35532 L11.2730323,147.463775 L11.5163594,147.529336 L12.4924609,147.792976 C13.3687179,148.030461 14.2760453,148.151122 15.1889585,148.151122 C19.748986,148.151122 23.8956715,145.144373 25.2725471,140.838955 L36.5755642,105.477755 L38.5071698,110.203741 C39.587654,112.846415 40.7987041,117.65226 41.0989355,120.488131 L43.4138599,142.286184 C43.9396141,147.222803 47.8705519,150.804607 52.760834,150.804607 C53.5452761,150.804607 54.3367002,150.709752 55.1131128,150.522484 L56.1000365,150.283256 C58.8548349,149.617182 60.9348107,147.963854 62.1137429,145.501821 C63.1533817,143.329932 63.4721159,140.547069 63.0608685,137.230997 L60.3874119,111.746173 L60.3839209,111.713043 L60.3797316,111.680263 C59.9182129,108.105433 58.1670954,101.784009 56.695612,98.372385 L53.1424073,89.2025351 L54.710244,90.8373804 C55.4587281,91.6185351 58.1845507,94.1712372 61.7953579,94.1712372 C63.7077627,94.1712372 65.5318435,93.4312326 67.0710535,92.030385 C69.0805098,90.2019947 70.0007542,87.7357776 69.662121,85.0868261 C69.4180957,83.1771818 68.5236851,81.2476598 67.2061577,79.786482 C61.3170822,73.012057 54.723161,65.2988515 53.5864706,63.7511887 C53.4436861,63.3152764 53.3969058,63.0021171 53.3927166,62.8727383 L53.046403,51.7915005 L53.0460539,51.7806898 L53.0453557,51.7698792 C52.9144408,48.4140524 52.0566865,45.504251 50.5649549,43.3553781 C48.6916501,40.6572557 45.9392954,39.2309508 42.6046313,39.2309508 L28.9077918,39.2309508 C28.7831608,39.2309508 28.6553879,39.2299046 28.5251712,39.2288584 C28.376801,39.2278122 28.2252888,39.2267661 28.0709838,39.2267661 L28.0709838,39.2267661 L28.058416,39.2267661 Z M28.0709838,42.0166044 C28.3610912,42.0166044 28.6410745,42.0207891 28.9077918,42.0207891 L42.5979983,42.0207891 L42.6046313,42.0207891 C47.7204362,42.0207891 50.0458337,46.5330039 50.2549485,51.8786829 L50.601262,62.9592233 C50.6194155,63.546833 50.7939687,64.2742834 51.060686,64.9835998 C51.3822129,65.8397314 65.1153596,81.6361448 65.1153596,81.6361448 C66.7334676,83.4178053 68.2094894,87.220355 65.1900683,89.967997 C64.0505851,91.0051194 62.8859663,91.3813988 61.7953579,91.3813988 C59.3617374,91.3813988 57.3002642,89.5055813 56.7270316,88.9075097 L50.0877265,81.9834797 L50.0877265,89.2007915 C50.1565005,89.3347037 50.2413333,89.4598977 50.3010305,89.5983434 L54.1104793,99.4297337 C55.4671067,102.552958 57.1738877,108.660263 57.6095725,112.037013 L60.2861711,137.549039 C60.9843838,143.128715 59.357199,146.625429 55.4412728,147.57223 L54.4578401,147.810761 C53.8950806,147.946417 53.3235935,148.014768 52.760834,148.014768 C49.3249291,148.014768 46.5627994,145.481944 46.1910011,141.992205 L43.8764259,120.194849 C43.5479168,117.093944 42.2733294,112.037013 41.0930007,109.149182 L36.2543864,97.3108515 L22.6120074,139.989798 C21.6002971,143.153475 18.5484092,145.361283 15.1889585,145.361283 C14.5232127,145.361283 13.8606088,145.273403 13.2217441,145.100433 L12.2459918,144.836445 C10.5842454,144.046572 9.56310927,143.350159 8.61842742,141.617669 C7.67374556,139.885528 7.66187595,137.475457 8.26932104,135.573136 L22.2698831,90.4345975 C22.3026991,90.3331171 21.9867579,72.4809416 21.9867579,72.4809416 L14.3943924,87.5586229 C13.7712375,88.7955674 11.8193838,92.012251 8.64077023,92.012251 C7.85458267,92.012251 6.99298813,91.8152187 6.05843036,91.3426898 C1.13637957,88.854154 3.43140488,83.9203249 3.9417984,82.8350778 L20.8584461,45.5746945 C23.2885756,42.2195651 25.961334,42.0166044 28.0709838,42.0166044 L28.0709838,42.0166044 Z" id="Fill-14" fill="#FFFFFF"></path>
                    <path d="M23.2142159,17.2223695 C23.2250382,20.3518707 24.3313563,23.2170346 26.1774308,25.4719215 L36.5116778,38.7972356 L46.7541097,25.4011293 C48.5806343,23.1336882 49.6712426,20.2608522 49.6604203,17.131351 C49.6356337,9.87323788 43.6955888,4.00969515 36.3922834,4.0348037 C29.0907235,4.05991224 23.1894293,9.96425635 23.2142159,17.2223695" id="Fill-16" fill="#D81E05"></path>
                </g>
            </g>
        </g>
    </g>
</svg>